# xmcd CD database file
#
# Track frame offsets:
#	150
#	18422
#	34507
#	46022
#	57535
#	71879
#	89943
#	105611
#	125066
#	143485
#	159606
#	179234
#	201350
#	218738
#	234242
#	255170
#	270934
#	293032
#	316770
#	328984
#
# Disc length: 4568 seconds
#
# Revision: 0
# Processed by: cddbd v1.5.2PL0 Copyright (c) Steve Scherf et al.
# Submitted via: CDex 1.51
#
DISCID=2911d614
DTITLE=Travis Tritt - The Very Best Of
DYEAR=1900
DGENRE=Country
TTITLE0=It's A Great Day to Be Alive
TTITLE1=Take It Easy
TTITLE2=Here's a Quarter
TTITLE3=Anymore
TTITLE4=Country Club
TTITLE5=Help Me Hold On
TTITLE6=Where Corn Don't Grow
TTITLE7=Best Of Intentions
TTITLE8=I'm Gonna Be Somebody
TTITLE9=Can I trust You With My Heart
TTITLE10=Foolish Pride
TTITLE11=Lord Have Mercy On The working Man
TTITLE12=Nothing Short Of Dying
TTITLE13=More Than You'll Ever Know
TTITLE14=Sometimes She Forgets
TTITLE15=This One's Gonna Hurt You
TTITLE16=Tell Me I Was Dreaming
TTITLE17=Drift Off To Dream
TTITLE18=The Whiskey Ain't Working
TTITLE19=T-r-o-u-b-l-e
EXTD=
EXTT0=
EXTT1=
EXTT2=
EXTT3=
EXTT4=
EXTT5=
EXTT6=
EXTT7=
EXTT8=
EXTT9=
EXTT10=
EXTT11=
EXTT12=
EXTT13=
EXTT14=
EXTT15=
EXTT16=
EXTT17=
EXTT18=
EXTT19=
PLAYORDER=
